<svg xmlns="http://www.w3.org/2000/svg" fill="none" viewBox="0 0 48.75 11">
<path d="M14.0781 1.54297H14.2188C14.6094 1.54297 15.3281 1.59375 16.375 1.69531L17.6758 1.73047H17.7109C18.3047 1.73047 18.7383 1.70312 19.0117 1.64844C19.1055 2 19.1523 2.42188 19.1523 2.91406V2.97266C19.1523 3.18359 19.1055 3.28906 19.0117 3.28906L18.9648 3.33594C18.9648 3.36719 19.0117 3.40234 19.1055 3.44141H19.1289V3.48828C19.082 3.55859 18.9453 3.60156 18.7188 3.61719C18.5312 3.61719 18.4375 3.55469 18.4375 3.42969L18.4258 3.14844L18.4375 2.60938C18.4375 2.53906 18.207 2.50391 17.7461 2.50391H17.043L16.6445 2.49219C16.5742 2.49219 16.5195 3.13281 16.4805 4.41406C16.4336 5.46875 16.4102 6.18359 16.4102 6.55859V6.91016C16.4102 7.01172 16.375 7.11719 16.3047 7.22656V7.23828C16.3672 7.23828 16.4023 7.32031 16.4102 7.48438L16.375 7.66016H16.3516V7.64844V7.57812L16.3281 8.49219C16.3281 8.58594 16.7148 8.66797 17.4883 8.73828C17.6367 8.79297 17.7109 8.86719 17.7109 8.96094C17.6484 9.10156 17.6172 9.27734 17.6172 9.48828C17.5938 9.48828 17.582 9.52734 17.582 9.60547L17.5352 9.65234C16.6992 9.60547 15.9297 9.58203 15.2266 9.58203H14.957C14.5977 9.58203 14.3203 9.59766 14.125 9.62891C14.1094 9.59766 14.0781 9.33984 14.0312 8.85547H14.043L14.207 8.92578H14.2188L14.2656 8.89062V8.87891C14.25 8.83984 14.2109 8.82031 14.1484 8.82031L14.1133 8.78516V8.76172C14.1133 8.73828 14.2852 8.69531 14.6289 8.63281C14.6289 8.60938 14.9023 8.59375 15.4492 8.58594C15.5117 8.58594 15.5547 8.33203 15.5781 7.82422L15.6367 7.07422C15.5664 6.42578 15.5312 6.02344 15.5312 5.86719L15.4023 3.54688V3.24219L15.4258 2.80859L15.4023 2.65625L15.4492 2.5625V2.50391C15.4492 2.43359 15.1406 2.39453 14.5234 2.38672C14.0781 2.41016 13.8555 2.44141 13.8555 2.48047C13.7852 2.66016 13.7148 2.92969 13.6445 3.28906L13.5625 3.35938L13.5391 3.34766H13.457C13.4258 3.37891 13.3906 3.39453 13.3516 3.39453L13.0234 3.41797C13.0234 3.26953 13.0234 3.11719 13.0234 2.96094C13.0312 2.79688 13.0352 2.67188 13.0352 2.58594C13.043 2.5 13.0469 2.4375 13.0469 2.39844L12.9883 1.95312C12.9883 1.85938 13.0469 1.80469 13.1641 1.78906L13.3047 1.64844H13.3633L13.4688 1.78906H13.4922C13.625 1.625 13.8203 1.54297 14.0781 1.54297ZM16.7031 1.98828L16.668 2.02344C16.668 2.0625 16.793 2.08984 17.043 2.10547C17.1758 2.08984 17.2422 2.07422 17.2422 2.05859V2.03516C17.1484 2.00391 16.9805 1.98828 16.7383 1.98828H16.7031ZM18.2383 2.31641H18.1211V2.32812C18.1367 2.36719 18.168 2.38672 18.2148 2.38672H18.2852V2.36328L18.2383 2.31641ZM18.5312 2.31641H18.4727V2.36328H18.5078L18.5312 2.32812V2.31641ZM16 2.60938V2.62109L16.0352 2.65625C16.1133 2.65625 16.1914 2.60547 16.2695 2.50391V2.48047L16.2109 2.46875C16.1406 2.46875 16.0703 2.51562 16 2.60938ZM13.5156 2.50391L13.457 2.5625V2.65625L13.4922 2.70312H13.5156L13.5742 2.64453V2.5625L13.5273 2.50391H13.5156ZM15.6367 2.59766V2.65625C15.6602 2.77344 15.6836 2.83203 15.707 2.83203C15.7461 2.83203 15.7773 2.78906 15.8008 2.70312V2.62109C15.8008 2.57422 15.7734 2.53516 15.7188 2.50391C15.6641 2.50391 15.6367 2.53516 15.6367 2.59766ZM18.7188 2.5625H18.6953L18.6602 2.71484L18.7188 2.73828L18.7539 2.70312V2.60938L18.7188 2.5625ZM16.1172 2.98438H16.1055L16.082 3.125V3.3125H16.1055L16.1172 3.14844V2.98438ZM18.6484 3.3125L18.625 3.33594V3.39453H18.6484L18.6953 3.34766V3.33594L18.6602 3.3125H18.6484ZM16.2227 4.03906H16.1992L16.1758 4.46094V4.74219C16.1758 4.9375 16.1953 5.03516 16.2344 5.03516H16.2578L16.293 4.88281L16.2227 4.03906ZM15.7188 4.39062L15.6953 4.42578L15.707 4.44922H15.7188V4.39062ZM15.8477 5.26953H15.8125C15.7656 5.46484 15.7422 5.67578 15.7422 5.90234V6.04297C15.7422 6.41797 15.7773 6.60547 15.8477 6.60547C15.8711 6.60547 15.8867 6.54297 15.8945 6.41797L15.8242 5.86719L15.8828 5.60938L15.8477 5.26953ZM15.9414 6.91016H15.8945V7.10938L16 7.28516V7.22656C16 7.01562 15.9805 6.91016 15.9414 6.91016ZM14.8398 8.76172L14.7812 8.82031V8.87891C14.7812 8.89453 14.7969 8.90234 14.8281 8.90234L15.0742 8.87891V8.84375C15.043 8.78906 14.9844 8.76172 14.8984 8.76172H14.8398ZM14.5586 8.80859H14.5234L14.5 8.84375L14.5352 8.87891H14.582L14.6055 8.84375L14.5586 8.80859ZM17.043 8.97266C17.1602 9.00391 17.2969 9.01953 17.4531 9.01953L17.4766 8.99609V8.96094L17.3594 8.92578H17.125C17.0703 8.93359 17.043 8.94922 17.043 8.97266ZM16.8203 9.125L16.7734 9.17188C16.7969 9.22656 16.8359 9.25391 16.8906 9.25391H16.9609C17.0078 9.25391 17.0391 9.24219 17.0547 9.21875V9.19531C17.0547 9.16406 17 9.14062 16.8906 9.125H16.8203ZM15.6953 9.14844L15.5898 9.17188V9.21875L15.6953 9.23047H15.8594C15.9062 9.23047 15.9336 9.21484 15.9414 9.18359C15.9023 9.16016 15.8438 9.14844 15.7656 9.14844H15.6953ZM14.875 9.19531L14.8164 9.21875V9.25391L15.0039 9.28906L15.1562 9.25391V9.24219L15.1094 9.19531H14.875ZM14.3477 9.41797V9.44141L14.3828 9.46484H14.4062C14.4609 9.43359 14.4883 9.37891 14.4883 9.30078V9.28906L14.4531 9.25391H14.4414C14.3789 9.29297 14.3477 9.34766 14.3477 9.41797ZM17.4414 9.28906L17.3945 9.33594V9.37109L17.4414 9.39453L17.4766 9.34766V9.3125L17.4414 9.28906ZM19.8789 3.14844L21.332 3.11328C21.457 3.11328 21.7188 3.16797 22.1172 3.27734C22.5703 3.70703 22.8398 4.04297 22.9258 4.28516C23.0977 4.46484 23.2344 4.82031 23.3359 5.35156C23.4609 5.47656 23.5234 5.75391 23.5234 6.18359L23.5352 6.47656L23.4883 7.63672C23.4883 7.87109 23.6328 8.16016 23.9219 8.50391C24.1875 8.76172 24.3594 8.89062 24.4375 8.89062V8.91406C24.4375 9.00781 24.3008 9.15625 24.0273 9.35938C23.8242 9.5625 23.6953 9.66406 23.6406 9.66406H23.6289C23.5039 9.64844 23.1875 9.41797 22.6797 8.97266C21.7578 9.33203 21.293 9.51562 21.2852 9.52344C20.9805 9.61719 20.6406 9.66406 20.2656 9.66406H20.207C19.7852 9.59375 19.4258 9.42969 19.1289 9.17188C19.0742 9.125 18.9609 8.92969 18.7891 8.58594C18.6484 8.41406 18.5781 8.20312 18.5781 7.95312V7.61328C18.5781 7.39453 18.6367 7.19141 18.7539 7.00391C18.8555 6.68359 19.0312 6.37891 19.2812 6.08984C19.4062 5.94141 19.5312 5.84766 19.6562 5.80859C20.0625 5.58984 20.4648 5.48047 20.8633 5.48047L21.3906 5.46875H21.4609C21.7578 5.46875 21.9688 5.51172 22.0938 5.59766H22.1641C22.2031 5.59766 22.2227 5.58203 22.2227 5.55078C22.1367 5.18359 21.9961 4.83203 21.8008 4.49609C21.6289 4.20703 21.3086 4.0625 20.8398 4.0625L20.3594 3.99219C19.9453 4.07812 19.7383 4.16406 19.7383 4.25C19.5742 4.46094 19.4766 4.72266 19.4453 5.03516C19.4297 5.07422 19.2891 5.09375 19.0234 5.09375L18.9531 5.11719C18.9219 5.11719 18.8828 5.18359 18.8359 5.31641C18.6172 5.28516 18.5078 5.23828 18.5078 5.17578C18.5234 5.12891 18.5508 4.84766 18.5898 4.33203C18.7148 3.97266 19.0117 3.64062 19.4805 3.33594C19.6992 3.21094 19.832 3.14844 19.8789 3.14844ZM21.1914 3.34766L21.168 3.38281L21.2031 3.42969H21.2734L21.2852 3.40625L21.25 3.34766H21.1914ZM22.082 3.44141H22.0586V3.46484C22.1211 3.52734 22.1758 3.55859 22.2227 3.55859H22.2344V3.53516C22.1719 3.47266 22.1211 3.44141 22.082 3.44141ZM20.207 3.5V3.53516C20.2148 3.55859 20.2539 3.57031 20.3242 3.57031C20.3945 3.57031 20.4922 3.54688 20.6172 3.5V3.45312H20.5703C20.3984 3.45312 20.2773 3.46875 20.207 3.5ZM19.1523 3.875V3.89844H19.1641C19.2344 3.89844 19.3398 3.82422 19.4805 3.67578V3.64062H19.4688C19.3906 3.64062 19.2852 3.71875 19.1523 3.875ZM20.7812 3.79297L20.7227 3.83984L20.7578 3.89844H20.9102L20.9453 3.86328L20.875 3.79297H20.7812ZM19.0586 4.74219L19.0234 4.76562V4.94141H19.0352C19.0664 4.93359 19.082 4.90625 19.082 4.85938V4.76562L19.0586 4.74219ZM23.3125 5.67969H23.3008V5.70312C23.3164 5.76562 23.332 5.79688 23.3477 5.79688L23.3594 5.73828C23.3438 5.69922 23.3281 5.67969 23.3125 5.67969ZM23.043 6.08984L23.0078 6.11328V6.14844C23.0391 6.26562 23.0703 6.32422 23.1016 6.32422H23.125C23.125 6.22266 23.1016 6.14453 23.0547 6.08984H23.043ZM19.6094 6.16016L19.4805 6.21875V6.27734H19.5039C19.5586 6.27734 19.5977 6.24609 19.6211 6.18359V6.16016H19.6094ZM19.4805 7.27344C19.5352 7.74219 19.6016 7.97656 19.6797 7.97656L19.7969 8.12891V8.14062L19.6914 8.12891V8.16406C19.8398 8.36719 20.1445 8.55469 20.6055 8.72656C20.6602 8.75781 20.7383 8.78125 20.8398 8.79688C20.9805 8.79688 21.5195 8.56641 22.457 8.10547C22.5195 8.06641 22.5508 8.02344 22.5508 7.97656V7.91797C22.4805 7.59766 22.4219 7.22266 22.375 6.79297L22.3516 6.78125C22.3516 6.69531 22.2656 6.625 22.0938 6.57031C21.5156 6.40625 21.1211 6.32422 20.9102 6.32422C20.3164 6.45703 19.9102 6.65625 19.6914 6.92188C19.5508 7.0625 19.4805 7.17969 19.4805 7.27344ZM23.0078 6.51172L22.9727 6.48828V6.52344H23.0078V6.51172ZM23.0547 6.73438H22.9844V6.78125L23.0195 6.81641L23.0547 6.78125V6.73438ZM22.6797 7.02734L22.6445 7.0625L22.6797 7.10938L22.7266 7.09766V7.0625L22.6914 7.02734H22.6797ZM23.1016 7.0625H23.0664V7.07422C23.082 7.37109 23.1133 7.51953 23.1602 7.51953L23.1836 7.49609V7.47266C23.1836 7.30859 23.1562 7.17188 23.1016 7.0625ZM22.6445 7.4375L22.6328 7.44922V7.51953L22.668 7.56641H22.6797L22.7266 7.51953V7.44922L22.6914 7.4375H22.6445ZM23.6406 8.53906H23.6055V8.60938C23.6367 8.71094 23.6719 8.76172 23.7109 8.76172H23.7461V8.72656C23.7148 8.60156 23.6797 8.53906 23.6406 8.53906ZM19.3281 8.57422L19.3047 8.59766V8.60938L19.3281 8.63281H19.3867V8.60938L19.3516 8.57422H19.3281ZM23.2773 8.72656L23.2422 8.76172C23.2656 8.81641 23.2969 8.85156 23.3359 8.86719H23.3477L23.3945 8.82031V8.79688L23.3359 8.72656H23.2773ZM21.5781 8.89062V8.91406H21.625C21.7344 8.91406 21.8789 8.86719 22.0586 8.77344V8.76172H22.0117C21.7461 8.79297 21.6016 8.83594 21.5781 8.89062ZM23.5352 8.92578L23.5117 8.97266V8.99609L23.5586 9.04297H23.6055L23.6406 9.01953V8.99609L23.582 8.92578H23.5352ZM20.6406 9.01953L20.6055 9.05469C20.6211 9.09375 20.6523 9.11328 20.6992 9.11328C20.7852 9.09766 20.8281 9.07812 20.8281 9.05469V9.04297L20.793 9.01953H20.6406ZM19.3633 9.18359L19.3281 9.23047C19.3594 9.30078 19.5547 9.39062 19.9141 9.5C20.0312 9.55469 20.1875 9.58203 20.3828 9.58203V9.57031C20.3828 9.54688 20.2344 9.50391 19.9375 9.44141C19.7656 9.39453 19.5859 9.30859 19.3984 9.18359H19.3633ZM24.8945 1.01562L24.9062 1.02734V1.03906L24.8711 1.07422C24.8789 1.10547 24.9102 1.12109 24.9648 1.12109H24.9883L25.0117 1.08594L24.9648 1.02734L24.9883 1.01562H25.4453C25.7188 1.01562 25.8555 1.09766 25.8555 1.26172L25.8906 1.30859H25.9258L25.9609 1.28516V1.26172L25.9258 1.16797L25.9375 1.14453H25.9609C26.1562 1.14453 26.2539 1.35547 26.2539 1.77734C26.2539 2.72266 26.3086 3.42188 26.418 3.875H26.4648L27.1914 3.83984C28.082 3.89453 28.5273 3.97266 28.5273 4.07422C28.5586 4.07422 28.7109 4.19531 28.9844 4.4375C29.4297 4.8125 29.7148 5.17969 29.8398 5.53906C29.9805 5.69531 30.0508 6.12109 30.0508 6.81641L30.0625 7.16797C29.8281 7.65234 29.7109 7.94141 29.7109 8.03516C29.7109 8.31641 29.3984 8.6875 28.7734 9.14844C28.6875 9.34375 28.2109 9.44531 27.3438 9.45312C26.9609 9.38281 26.6953 9.34766 26.5469 9.34766H26.2773C26.1445 9.34766 26.0781 9.40234 26.0781 9.51172L25.832 9.82812C25.6992 9.86719 25.5938 9.88672 25.5156 9.88672C25.4219 9.88672 25.2305 9.8125 24.9414 9.66406V9.62891C24.9961 9.56641 25.0234 9.50391 25.0234 9.44141V9.39453L24.9883 9.18359L25.0117 9.01953V8.80859L24.9648 8.57422C25.0586 8.06641 25.1055 7.72266 25.1055 7.54297L25.1406 7.42578L25.1172 7.27344L25.2227 6.44141V6.39453C25.2227 6.19141 25.1719 5.55859 25.0703 4.49609V4.47266L25.0469 4.46094L25.0703 4.37891V4.33203C25.1016 3.85547 25.1172 3.41797 25.1172 3.01953V2.14062L25.1055 2.07031H25.082C24.7852 2.22656 24.5703 2.30469 24.4375 2.30469C24.3438 2.30469 24.2852 2.09375 24.2617 1.67188C24.2617 1.64063 24.2852 1.59766 24.332 1.54297V1.50781H24.3086L24.2734 1.51953L24.2617 1.50781C24.2617 1.21094 24.293 1.0625 24.3555 1.0625C24.4414 1.03125 24.6211 1.01562 24.8945 1.01562ZM25.8672 1.02734H25.9258V1.0625L25.8672 1.07422L25.8555 1.0625V1.03906L25.8672 1.02734ZM25.2227 1.21484H25.1875V1.22656H25.2227V1.21484ZM25.4453 1.21484L25.4102 1.25V1.26172H25.4922V1.21484H25.4453ZM24.4844 1.25H24.3555V1.26172C24.3555 1.28516 24.4375 1.31641 24.6016 1.35547C24.7656 1.34766 24.8477 1.32812 24.8477 1.29688V1.28516C24.7539 1.26172 24.6328 1.25 24.4844 1.25ZM25.5977 1.40234L25.5391 1.46094V1.64844L25.5742 1.67188C25.6367 1.63281 25.668 1.57031 25.668 1.48438C25.668 1.4375 25.6562 1.41016 25.6328 1.40234H25.5977ZM25.1523 1.625L25.1992 1.66016H25.3281L25.375 1.60156V1.54297L25.3281 1.50781C25.2109 1.50781 25.1523 1.54688 25.1523 1.625ZM24.5547 1.51953H24.5312L24.5195 1.58984V1.69531C24.5195 1.72656 24.5586 1.74609 24.6367 1.75391C24.7461 1.75391 24.8086 1.71875 24.8242 1.64844C24.7148 1.5625 24.625 1.51953 24.5547 1.51953ZM24.9883 1.55469H24.8945V1.57812L24.9297 1.625H25.0234V1.58984L24.9883 1.55469ZM25.5508 2.50391C25.5742 2.67578 25.6055 2.76172 25.6445 2.76172H25.6562V2.73828C25.6406 2.55859 25.6133 2.46875 25.5742 2.46875C25.5586 2.46875 25.5508 2.48047 25.5508 2.50391ZM27.918 4.07422H27.8242V4.09766C27.8477 4.14453 27.8945 4.16797 27.9648 4.16797H27.9766V4.13281L27.918 4.07422ZM26.9688 4.20312L27.0039 4.23828H27.0742L27.1797 4.20312V4.14453L27.1211 4.13281C27.0586 4.13281 27.0078 4.15625 26.9688 4.20312ZM26.4414 4.54297V4.58984H26.4648C26.6602 4.55859 26.7578 4.52734 26.7578 4.49609V4.46094H26.7344C26.6484 4.46094 26.5508 4.48828 26.4414 4.54297ZM28.2812 4.49609H28.2344C28.2344 4.57422 28.3477 4.64453 28.5742 4.70703C28.7305 4.91797 28.8438 5.02344 28.9141 5.02344V5.01172C28.8672 4.84766 28.7969 4.73438 28.7031 4.67188C28.4922 4.55469 28.3516 4.49609 28.2812 4.49609ZM26.1016 6.82812C26.1016 7.01562 26.1094 7.19531 26.125 7.36719L26.1133 7.66016V8.1875C26.1133 8.28906 26.2969 8.39453 26.6641 8.50391C26.75 8.53516 26.8984 8.55078 27.1094 8.55078C27.5 8.55078 27.9883 8.42578 28.5742 8.17578C28.7617 8.02734 28.9727 7.71484 29.207 7.23828L29.2773 6.94531C29.2773 6.54688 29.1562 6.12891 28.9141 5.69141C28.8594 5.44922 28.7305 5.23438 28.5273 5.04688L28 4.67188C27.4531 4.67188 26.8867 4.78906 26.3008 5.02344C26.2383 5.02344 26.1953 5.30078 26.1719 5.85547C26.125 6.12891 26.1016 6.45312 26.1016 6.82812ZM29.7344 5.60938H29.7109V5.65625C29.7109 5.71094 29.7383 5.73828 29.793 5.73828H29.8047V5.72656C29.8047 5.67188 29.7812 5.63281 29.7344 5.60938ZM29.3359 5.91406H29.3008V5.94922L29.3359 5.97266H29.3594V5.94922L29.3359 5.91406ZM29.418 8.375V8.38672C29.5273 8.38672 29.6055 8.21094 29.6523 7.85938H29.5703C29.5391 7.85938 29.4961 8.00391 29.4414 8.29297C29.4258 8.29297 29.418 8.32031 29.418 8.375ZM29.125 8.17578V8.1875L29.1602 8.21094C29.2461 8.17188 29.2891 8.12891 29.2891 8.08203L29.2539 8.04688H29.2188C29.1562 8.08594 29.125 8.12891 29.125 8.17578ZM28.293 8.45703V8.49219L28.3281 8.50391H28.3516C28.4531 8.50391 28.5039 8.48438 28.5039 8.44531L28.4688 8.39844H28.3984C28.3438 8.39844 28.3086 8.41797 28.293 8.45703ZM26.207 8.44531V8.45703C26.2148 8.48828 26.2422 8.50391 26.2891 8.50391V8.49219C26.2812 8.46094 26.2539 8.44531 26.207 8.44531ZM25.7734 8.45703L25.75 8.49219V8.5625L25.7734 8.59766H25.7852L25.8203 8.5625V8.55078C25.8203 8.49609 25.8047 8.46484 25.7734 8.45703ZM28.6562 8.78516V8.82031C28.9062 8.75 29.043 8.69141 29.0664 8.64453V8.62109C28.9961 8.62109 28.8594 8.67578 28.6562 8.78516ZM25.1055 8.76172H25.0703V8.80859L25.1055 8.82031H25.1172V8.80859L25.1055 8.76172ZM28.0938 8.84375L28.0703 8.86719V8.90234H28.1758L28.2109 8.85547V8.84375H28.0938ZM27.2266 9.04297L27.25 9.05469H27.3672C27.5547 9.03906 27.6602 9.01172 27.6836 8.97266V8.9375H27.6484C27.4531 8.9375 27.3125 8.97266 27.2266 9.04297ZM26.2656 9.00781H26.1836V9.03125C26.1836 9.0625 26.25 9.08594 26.3828 9.10156H26.4062V9.05469C26.4062 9.03906 26.3594 9.02344 26.2656 9.00781ZM25.6328 9.21875L25.668 9.23047C25.7383 9.19141 25.7734 9.15625 25.7734 9.125H25.7148C25.6602 9.125 25.6328 9.15625 25.6328 9.21875ZM25.3984 9.19531L25.3398 9.21875V9.25391L25.3984 9.30078H25.4453V9.25391L25.3984 9.19531ZM28.2109 9.3125H28.1758V9.34766H28.2109V9.3125ZM32.7109 2.30469L32.5586 2.09375C32.793 2.07031 32.9492 2.05859 33.0273 2.05859C33.9258 2.01172 34.4219 1.97266 34.5156 1.94141L35.1719 1.91797C35.2969 1.92578 35.3594 1.96094 35.3594 2.02344C35.3359 2.05469 35.3242 2.10547 35.3242 2.17578C35.3711 2.23047 35.3945 2.26562 35.3945 2.28125V2.64453L35.4062 2.65625C35.4062 2.82812 35.2344 3.12109 34.8906 3.53516C34.75 3.73047 34.625 3.95703 34.5156 4.21484C34.4844 4.24609 34.3867 4.42578 34.2227 4.75391C33.7852 5.42578 33.3906 6.10547 33.0391 6.79297C33.0078 6.80859 32.9062 6.96484 32.7344 7.26172C32.5469 7.48828 32.3047 7.86719 32.0078 8.39844V8.41016C32.0234 8.44922 32.0703 8.46875 32.1484 8.46875H32.1602L33.2852 8.39844C33.6445 8.39844 34.1172 8.43359 34.7031 8.50391C34.7734 8.50391 34.8477 8.26562 34.9258 7.78906L34.9961 7.87109C35.0273 7.79297 35.0781 7.73438 35.1484 7.69531C35.5703 7.76562 35.7695 7.76953 35.7461 7.70703C35.8242 7.71484 35.8906 8.26953 35.9453 9.37109C35.8438 9.36328 34.9883 9.37891 33.3789 9.41797L31.7148 9.55859C31.6211 9.60547 31.5156 9.62891 31.3984 9.62891L31.1523 9.53516L30.8711 9.57031H30.8477C30.6367 9.57031 30.5156 9.53125 30.4844 9.45312L30.5078 9.39453V9.25391C30.5234 8.97266 30.8867 8.37109 31.5977 7.44922C31.6055 7.41016 31.8555 7.02344 32.3477 6.28906C32.9102 5.33594 33.4609 4.48438 34 3.73438C34.0703 3.63281 34.2422 3.42578 34.5156 3.11328L34.5273 3.05469C34.4883 3.03125 34.4062 3.01953 34.2812 3.01953H34.2578C33.9141 3.01953 33.3242 3.08594 32.4883 3.21875H32.4414L31.832 3.17188L31.7383 3.37109L31.8203 4.03906C31.8203 4.125 31.5625 4.19141 31.0469 4.23828C30.9453 4.02734 30.8945 3.83594 30.8945 3.66406V3.40625V3.24219L30.918 2.49219L30.8477 2.30469C30.8711 2.30469 30.9258 2.23828 31.0117 2.10547C31.0508 2.06641 31.1914 2.11328 31.4336 2.24609C31.3711 2.18359 31.3398 2.14453 31.3398 2.12891V2.10547L31.3516 2.09375L31.5391 2.23438C31.8516 2.20313 32.1211 2.16797 32.3477 2.12891L32.2656 2.15234V2.17578H32.3242C32.5977 2.31641 32.7344 2.36328 32.7344 2.31641L32.7109 2.30469ZM32.9219 2.23438C32.9219 2.26562 33.293 2.28906 34.0352 2.30469L34.3047 2.35156C34.375 2.32031 34.4453 2.30469 34.5156 2.30469H34.7266L35.0312 2.08203V2.05859C34.8906 2.10547 34.7461 2.12891 34.5977 2.12891C33.4805 2.15234 32.9219 2.1875 32.9219 2.23438ZM33.9531 4.33203V4.39062C34.0234 4.39062 34.2109 4.16797 34.5156 3.72266L35.0078 3.07812V3.05469H34.9609C34.8203 3.05469 34.6445 3.19922 34.4336 3.48828C34.3477 3.67578 34.1875 3.95703 33.9531 4.33203ZM34.7852 2.48047L34.6914 2.50391L33.918 2.49219C33.8008 2.55469 33.6641 2.60547 33.5078 2.64453V2.65625L33.6719 2.69141H33.7539L34.3516 2.58594C34.5312 2.57813 34.6797 2.55078 34.7969 2.50391V2.48047H34.7852ZM31.5273 2.53906H31.5156L31.5273 2.78516H31.5508C31.6133 2.72266 31.6602 2.69141 31.6914 2.69141L31.9844 2.70312H32.1836V2.66797C32.1836 2.62109 31.9648 2.57813 31.5273 2.53906ZM32.7812 6.67578V6.6875C32.8594 6.6875 32.9492 6.53516 33.0508 6.23047C33.1445 6.12891 33.1914 6.05469 33.1914 6.00781V5.98438C33.0742 5.98438 32.9375 6.21484 32.7812 6.67578ZM35.5703 9.20703C35.5938 9.27734 35.6367 9.3125 35.6992 9.3125C35.7383 9.3125 35.7578 9.30078 35.7578 9.27734L35.7227 8.84375H35.6875C35.6406 8.84375 35.6016 8.96484 35.5703 9.20703ZM32.7461 9.23047V9.25391L32.9219 9.26562H33.0039C33.2773 9.26562 33.4766 9.25391 33.6016 9.23047V9.19531L33.5312 9.18359H33.5195C33.1602 9.18359 32.9023 9.19922 32.7461 9.23047ZM32.0312 9.3125V9.34766L32.0547 9.37109H32.0781C32.2812 9.37109 32.4023 9.33984 32.4414 9.27734C32.4414 9.26953 32.375 9.25781 32.2422 9.24219C32.1016 9.25781 32.0312 9.28125 32.0312 9.3125ZM31.7148 8.17578L31.6914 8.23438V8.25781C31.8633 8.09375 32 7.91406 32.1016 7.71875V7.68359C31.9766 7.80078 31.8477 7.96484 31.7148 8.17578ZM34.1523 2.36328L33.5781 2.38672H33.5547V2.39844H34.375L34.3984 2.38672L34.1523 2.36328ZM32.1484 2.96094V3.01953H32.1602L32.5586 2.96094V2.94922L32.5234 2.91406H32.3477C32.2773 2.91406 32.2109 2.92969 32.1484 2.96094ZM30.707 9.34766L30.7422 9.39453H30.9297L30.9766 9.34766V9.33594L30.9297 9.27734H30.8477C30.7617 9.27734 30.7148 9.30078 30.707 9.34766ZM32.0312 2.39844L31.9961 2.43359V2.46875L32.1484 2.48047C32.2422 2.48047 32.2891 2.46484 32.2891 2.43359V2.42188L32.2188 2.39844H32.0312ZM31.0117 3.89844L31.0352 3.94531H31.0586C31.1133 3.91406 31.1562 3.85938 31.1875 3.78125L31.1641 3.74609H31.1172C31.0781 3.76172 31.043 3.8125 31.0117 3.89844ZM31.9375 8.67969H32.2305L32.2656 8.64453L32.2305 8.62109H32.1602C32.0117 8.62109 31.9375 8.64062 31.9375 8.67969ZM34.9844 9.10156L34.9141 9.16016L34.9375 9.19531H35.0078C35.0625 9.19531 35.0938 9.17969 35.1016 9.14844L35.0547 9.10156H34.9844ZM33.7422 8.52734L33.6953 8.57422C33.6953 8.59766 33.7109 8.60938 33.7422 8.60938C33.8359 8.59375 33.8828 8.57422 33.8828 8.55078L33.8711 8.52734H33.7422ZM35.0312 8.33984L34.9844 8.39844V8.44531L35.0078 8.46875H35.0195C35.0586 8.45312 35.0781 8.42188 35.0781 8.375V8.33984H35.0312ZM31.8438 9.34766L31.8086 9.39453V9.44141H31.9258L31.9609 9.39453L31.9375 9.34766H31.8438ZM34.6914 8.89062H34.5977V8.90234C34.5977 8.92578 34.6328 8.94531 34.7031 8.96094L34.7266 8.9375V8.92578L34.6914 8.89062ZM33.0859 2.44531H33.0273V2.46875C33.0352 2.49219 33.0664 2.50391 33.1211 2.50391V2.48047L33.0859 2.44531ZM32.5586 2.09375H32.5469L32.3594 2.12891C32.4297 2.10547 32.4961 2.09375 32.5586 2.09375ZM31.0469 3.19531H31.0117V3.23047L31.0469 3.25391H31.082V3.23047L31.0469 3.19531ZM34.1406 9.16016H34.0938V9.19531H34.1406V9.16016ZM39.0977 3.61719C39.4258 3.61719 39.8242 3.75781 40.293 4.03906C40.6914 4.33594 40.8906 4.53906 40.8906 4.64844C41.2031 5.30469 41.3594 5.69922 41.3594 5.83203L41.3711 5.92578C41.2539 6.19922 41.1953 6.38672 41.1953 6.48828L41.125 6.5H40.1289C40.0352 6.5 39.9219 6.51172 39.7891 6.53516C38.6641 6.44141 37.875 6.39453 37.4219 6.39453H37.1758C37.082 6.53516 37.0352 6.63672 37.0352 6.69922C37.0898 6.78516 37.1172 6.92188 37.1172 7.10938C37.1172 7.40625 37.1641 7.58203 37.2578 7.63672L37.2695 7.69531V7.70703L37.1992 7.67188V7.70703L37.3047 7.82422C37.3047 7.92578 37.375 8.05469 37.5156 8.21094C37.7734 8.66406 38.0547 8.94531 38.3594 9.05469C38.6172 9.14062 38.9102 9.18359 39.2383 9.18359C39.293 9.18359 39.4062 9.13281 39.5781 9.03125C39.7188 9 40.0156 8.74609 40.4688 8.26953V8.23438C40.4688 8.21875 40.4141 8.20312 40.3047 8.1875L40.2812 8.12891C40.4609 7.78516 40.6758 7.55859 40.9258 7.44922C40.9961 7.51953 41.1406 7.62891 41.3594 7.77734C41.5312 8.04297 41.7617 8.35547 42.0508 8.71484V8.76172C41.8008 9.08984 41.6211 9.25391 41.5117 9.25391H41.4648C41.4648 9.08203 41.3594 8.98438 41.1484 8.96094C41.1094 8.96094 40.9375 9.08984 40.6328 9.34766C40.4531 9.48828 40.1445 9.62109 39.707 9.74609C39.1992 9.84766 38.8398 9.89844 38.6289 9.89844L37.9609 9.66406C37.5859 9.66406 37.2422 9.46094 36.9297 9.05469C36.7969 8.91406 36.6875 8.74609 36.6016 8.55078C36.6016 8.48828 36.5156 8.16406 36.3438 7.57812C36.2891 7.35156 36.2617 7.13281 36.2617 6.92188V6.91016C36.2617 5.87109 36.5742 4.96094 37.1992 4.17969C37.2773 3.98438 37.457 3.83984 37.7383 3.74609C37.9258 3.69141 38.1523 3.64844 38.418 3.61719C38.4883 3.58594 38.7148 3.58594 39.0977 3.61719ZM38.0195 3.86328V3.875H38.043C38.168 3.875 38.4023 3.83203 38.7461 3.74609C38.8164 3.73828 38.8516 3.71875 38.8516 3.6875L38.8164 3.65234H38.8047C38.5781 3.65234 38.3242 3.71484 38.043 3.83984L38.0195 3.86328ZM37.5508 4.0625V4.07422L37.5859 4.09766H37.5977C37.7539 4.05859 37.832 4.01953 37.832 3.98047V3.91016L37.7852 3.86328H37.7617C37.6211 3.91016 37.5508 3.97656 37.5508 4.0625ZM39.3555 3.94531H39.0039V3.96875C39.0039 4 39.1641 4.02344 39.4844 4.03906H39.4961V3.99219C39.4961 3.97656 39.4492 3.96094 39.3555 3.94531ZM38.5234 4.12109V4.13281C38.5234 4.16406 38.6836 4.20312 39.0039 4.25L39.0273 4.23828V4.19141C38.9648 4.10547 38.8594 4.0625 38.7109 4.0625H38.6758C38.5742 4.07031 38.5234 4.08984 38.5234 4.12109ZM39.2383 4.19141V4.20312C39.6836 4.46094 39.9219 4.58984 39.9531 4.58984H39.9648L40.082 4.54297L40.1523 4.56641L40.1641 4.54297V4.53125C40.1328 4.50781 40.0664 4.48438 39.9648 4.46094L39.7305 4.35547C39.668 4.22266 39.543 4.15625 39.3555 4.15625H39.3203C39.2656 4.16406 39.2383 4.17578 39.2383 4.19141ZM37.8438 4.53125C37.9219 4.46875 38.0781 4.40234 38.3125 4.33203V4.30859L38.3008 4.28516H38.1836C37.957 4.34766 37.8438 4.42969 37.8438 4.53125ZM37.2227 5.30469V5.33984C37.2227 5.42578 37.9336 5.52344 39.3555 5.63281L39.4727 5.66797L39.625 5.65625C39.9375 5.75781 40.1484 5.80859 40.2578 5.80859C40.2578 5.83203 40.2812 5.85156 40.3281 5.86719C40.375 5.79688 40.3984 5.73047 40.3984 5.66797V5.44531C40.3984 5.34375 40.2031 5.11719 39.8125 4.76562C39.6328 4.58594 39.4297 4.48438 39.2031 4.46094L38.8047 4.39062C38.1562 4.52344 37.7305 4.68359 37.5273 4.87109C37.4414 5.03516 37.3398 5.17969 37.2227 5.30469ZM37.3516 4.60156V4.625H37.375C37.4766 4.60156 37.5273 4.57422 37.5273 4.54297V4.53125H37.4688C37.4297 4.53125 37.3906 4.55469 37.3516 4.60156ZM40.1523 4.76562C40.168 4.82812 40.2031 4.85938 40.2578 4.85938H40.2812L40.3047 4.82422V4.75391L40.2578 4.69531C40.1875 4.69531 40.1523 4.71875 40.1523 4.76562ZM37.1289 4.82422L37.1055 4.85938V4.87109H37.1289L37.1758 4.83594V4.82422H37.1289ZM40.4453 4.91797H40.3984C40.4844 5.17578 40.5469 5.31641 40.5859 5.33984H40.6328L40.668 5.31641C40.6055 5.06641 40.5391 4.94141 40.4688 4.94141L40.4453 4.91797ZM37.2344 5.12891C37.2812 5.12109 37.3047 5.08984 37.3047 5.03516V5.02344C37.2578 5.03906 37.2344 5.07422 37.2344 5.12891ZM40.8438 5.44531L40.8086 5.46875V5.55078L40.8438 5.59766C40.875 5.58984 40.8906 5.5625 40.8906 5.51562V5.46875L40.8789 5.44531H40.8438ZM37.1055 5.60938V5.65625L37.1289 5.67969H37.1523C37.207 5.65625 37.2539 5.61328 37.293 5.55078V5.51562H37.2344C37.1875 5.51562 37.1445 5.54688 37.1055 5.60938ZM36.625 5.53906C36.5625 5.60156 36.5078 5.75781 36.4609 6.00781H36.4844C36.5312 6.00781 36.6016 5.87109 36.6953 5.59766C36.6797 5.55859 36.6562 5.53906 36.625 5.53906ZM37.8203 5.67969V5.71484C37.9688 5.81641 38.2383 5.86719 38.6289 5.86719H38.7344L38.8867 5.85547V5.80859C38.5664 5.73828 38.2109 5.69531 37.8203 5.67969ZM39.9648 5.98438H39.9297V6.01953H39.9648V5.98438ZM37.7031 6.07812V6.10156C37.8594 6.14062 38.2734 6.17969 38.9453 6.21875V6.23047V6.24219L38.6992 6.27734C38.6992 6.30078 38.8008 6.3125 39.0039 6.3125C39.332 6.3125 39.4961 6.29688 39.4961 6.26562C39.4961 6.1875 38.8984 6.125 37.7031 6.07812ZM36.5195 6.16016H36.4609V6.23047C36.4609 6.27734 36.4727 6.30078 36.4961 6.30078C36.5352 6.30078 36.5586 6.26172 36.5664 6.18359L36.5195 6.16016ZM37.4688 6.18359L37.4102 6.19531V6.26562H37.4688V6.21875V6.19531V6.18359ZM37.0938 6.27734V6.28906H37.1055L37.3047 6.26562V6.24219L37.2695 6.19531H37.2344C37.1641 6.19531 37.1172 6.22266 37.0938 6.27734ZM39.9414 6.30078C39.9414 6.33203 40.0117 6.34766 40.1523 6.34766L40.2578 6.33594V6.3125C40.2578 6.28125 40.1836 6.26562 40.0352 6.26562C39.9727 6.28125 39.9414 6.29297 39.9414 6.30078ZM36.4609 6.60547V6.64062V6.65234C36.4531 6.67578 36.4492 6.73047 36.4492 6.81641V6.86328C36.4492 7.00391 36.4883 7.12891 36.5664 7.23828H36.5781C36.5781 6.86328 36.5391 6.65234 36.4609 6.60547ZM36.6719 7.625H36.6367V7.64844L36.6719 7.67188H36.6953V7.64844L36.6719 7.625ZM36.7539 7.82422L36.7422 7.83594V7.85938C36.7734 7.98438 36.8203 8.04688 36.8828 8.04688V8.03516V8.01172C36.8828 7.94922 36.8398 7.88672 36.7539 7.82422ZM40.5742 7.92969L40.5977 7.96484H40.6562C40.7031 7.96484 40.7305 7.94922 40.7383 7.91797L40.6914 7.87109H40.6797C40.625 7.87109 40.5898 7.89062 40.5742 7.92969ZM40.3047 8.60938L40.3281 8.62109H40.3398C40.4258 8.62109 40.4805 8.57031 40.5039 8.46875V8.44531C40.418 8.44531 40.3516 8.5 40.3047 8.60938ZM41.125 8.58594L41.1367 8.59766H41.1719C41.2188 8.56641 41.2422 8.52344 41.2422 8.46875H41.207C41.1523 8.5 41.125 8.53906 41.125 8.58594ZM41.5352 8.46875H41.5234V8.49219C41.5469 8.58594 41.582 8.63281 41.6289 8.63281H41.6406L41.6641 8.60938V8.59766C41.6484 8.51172 41.6055 8.46875 41.5352 8.46875ZM40.8555 8.71484L40.8906 8.73828C41.0078 8.69922 41.0664 8.64844 41.0664 8.58594V8.5625H41.0547C40.9453 8.5625 40.8789 8.61328 40.8555 8.71484ZM39.9414 8.97266H39.9648C40.0273 8.94922 40.0625 8.91016 40.0703 8.85547L40.0586 8.84375C39.9805 8.89062 39.9414 8.93359 39.9414 8.97266ZM40.6328 9.03125H40.6797C40.7578 8.96094 40.7969 8.91016 40.7969 8.87891H40.7852C40.6836 8.91016 40.6328 8.96094 40.6328 9.03125ZM37.3047 9.13672H37.2695V9.18359C37.2852 9.22266 37.3516 9.26562 37.4688 9.3125L37.5156 9.34766C37.4297 9.21484 37.3594 9.14453 37.3047 9.13672ZM38.125 9.18359H38.1133V9.19531C38.1133 9.22656 38.1953 9.26172 38.3594 9.30078L38.3711 9.28906V9.26562C38.2695 9.21094 38.1875 9.18359 38.125 9.18359ZM38.8164 9.3125H38.7812V9.34766H38.8164V9.3125ZM40.0352 9.48828C40.1133 9.48828 40.1758 9.42969 40.2227 9.3125H40.1875C40.0859 9.36719 40.0352 9.42578 40.0352 9.48828ZM39.2148 9.60547L38.9688 9.58203H38.9219C38.8516 9.58203 38.8125 9.59766 38.8047 9.62891V9.65234L38.8516 9.6875H39.0625C39.3047 9.6875 39.5898 9.64453 39.918 9.55859C39.9023 9.51172 39.8555 9.48828 39.7773 9.48828H39.7188C39.5312 9.48828 39.3633 9.52734 39.2148 9.60547ZM42.2852 3.59375L42.3086 3.57031C42.4883 3.60156 42.6758 3.61719 42.8711 3.61719H43.832L43.8672 3.65234C43.8203 3.79297 43.7969 3.90234 43.7969 3.98047V4.17969C43.8281 4.39844 43.8906 4.50781 43.9844 4.50781C44.0312 4.42188 44.1875 4.33984 44.4531 4.26172C45.0859 3.98828 45.6016 3.85156 46 3.85156C46.2656 3.85156 46.5508 3.96875 46.8555 4.20312C47.082 4.28906 47.3008 4.47266 47.5117 4.75391C47.832 5.26172 47.9922 5.85938 47.9922 6.54688V6.64062L47.9102 7.48438L47.9922 8.09375L47.875 8.64453V8.66797V8.76172L48.3203 8.78516H48.5195C48.6523 8.78516 48.7305 8.79688 48.7539 8.82031C48.7227 9.39062 48.6641 9.67578 48.5781 9.67578C48.4219 9.76953 48.2539 9.81641 48.0742 9.81641H47.8281C47.4531 9.81641 47.0586 9.86719 46.6445 9.96875C46.3711 9.92969 46.2344 9.79297 46.2344 9.55859L46.2227 9.13672C46.2227 8.87891 46.2891 8.69141 46.4219 8.57422C46.4922 8.19141 46.5742 7.84375 46.668 7.53125L46.7383 6.48828C46.7617 6.48828 46.7734 6.40234 46.7734 6.23047C46.7734 6.01953 46.6055 5.71875 46.2695 5.32812C46.0117 5.21875 45.8633 5.16406 45.8242 5.16406C45.3711 5.16406 44.9648 5.35547 44.6055 5.73828C44.5742 5.73828 44.3828 5.92969 44.0312 6.3125C43.9219 6.39844 43.8672 6.66016 43.8672 7.09766C43.8828 7.88672 43.9102 8.28125 43.9492 8.28125C44.2617 8.33594 44.418 8.39453 44.418 8.45703V8.50391L44.1602 8.49219L43.9727 8.50391V8.55078C43.9727 8.58203 44.1211 8.62109 44.418 8.66797C44.4727 8.72266 44.5 8.8125 44.5 8.9375V8.96094C44.5 9.14844 44.4609 9.34766 44.3828 9.55859L43.0234 9.57031C42.8906 9.57031 42.793 9.50391 42.7305 9.37109C42.6992 9.22266 42.6641 8.93359 42.625 8.50391C42.625 8.46484 42.7422 8.42188 42.9766 8.375L43.0352 8.29297V8.28125C43.0352 8.23438 43.0039 8.16797 42.9414 8.08203V7.71875V7.05078L42.9883 5.97266C42.9883 5.23828 42.957 4.87109 42.8945 4.87109H42.8359L42.2852 4.94141C42.2305 4.94141 42.1562 4.89453 42.0625 4.80078V4.75391C42.1016 4.69141 42.1211 4.625 42.1211 4.55469L42.0977 4.12109L42.2852 3.59375ZM43.3047 3.80469L42.3438 3.95703V3.98047C42.3438 4.00391 42.4023 4.01953 42.5195 4.02734C43.0273 4.02734 43.2812 3.99219 43.2812 3.92188L43.3281 3.85156V3.82812H43.3047V3.80469ZM45.6367 4.02734V4.03906C45.6914 4.03906 45.7852 4.08594 45.918 4.17969L46.0469 4.21484L46.4219 4.20312L46.4336 4.17969V4.16797C46.4258 4.12109 46.3828 4.09766 46.3047 4.09766H46.2578L46.1406 4.12109C45.9688 4.01953 45.8438 3.96875 45.7656 3.96875C45.6953 3.96875 45.6523 3.98828 45.6367 4.02734ZM44.8398 4.23828V4.25L44.8633 4.28516C45.2305 4.19141 45.4141 4.12109 45.4141 4.07422H45.3906C45.2188 4.07422 45.0352 4.12891 44.8398 4.23828ZM42.5781 4.25L42.6133 4.28516H42.6367C42.7383 4.27734 42.7891 4.25391 42.7891 4.21484L42.7305 4.20312C42.6289 4.20312 42.5781 4.21875 42.5781 4.25ZM42.6836 4.48438V4.50781L42.9062 4.49609H42.9414C43.0195 4.49609 43.0664 4.51562 43.082 4.55469V4.58984C43.043 4.62891 43.0234 4.66797 43.0234 4.70703C43.0625 4.73828 43.1094 4.75391 43.1641 4.75391C43.1875 4.75391 43.1992 4.73828 43.1992 4.70703L43.2109 4.32031L43.1992 4.28516H43.1641C43.1172 4.31641 42.9609 4.37891 42.6953 4.47266L42.6836 4.48438ZM44.6289 4.35547L44.6406 4.36719V4.37891C44.7109 4.35547 44.7461 4.33594 44.7461 4.32031V4.29688H44.7227C44.6602 4.3125 44.6289 4.33203 44.6289 4.35547ZM42.2617 4.36719V4.37891C42.2617 4.40234 42.2812 4.42188 42.3203 4.4375C42.3828 4.4375 42.4531 4.40234 42.5312 4.33203V4.32031H42.3438C42.2891 4.32812 42.2617 4.34375 42.2617 4.36719ZM46.3047 4.55469C46.3047 4.58594 46.375 4.60938 46.5156 4.625C46.5469 4.60156 46.5625 4.57031 46.5625 4.53125C46.5625 4.49219 46.5 4.46094 46.375 4.4375C46.3281 4.46875 46.3047 4.50781 46.3047 4.55469ZM43.9375 4.64844V4.69531C44.0469 4.69531 44.1641 4.625 44.2891 4.48438V4.47266L44.2773 4.46094H44.2656C44.1719 4.46094 44.0625 4.52344 43.9375 4.64844ZM46.75 4.48438L46.7148 4.53125C46.7305 4.57031 46.7617 4.58984 46.8086 4.58984H46.8672L46.9258 4.54297V4.53125C46.918 4.5 46.8789 4.48438 46.8086 4.48438H46.75ZM45.4492 4.60156V4.625H45.5078C45.625 4.60938 45.6836 4.58594 45.6836 4.55469V4.53125H45.6016C45.5 4.53906 45.4492 4.5625 45.4492 4.60156ZM43.5273 4.54297H43.4688L43.4453 4.61328V4.82422C43.4453 4.91797 43.4297 4.98047 43.3984 5.01172V5.07031L43.4453 5.23438V5.32812C43.4453 5.39062 43.4648 5.43359 43.5039 5.45703C43.5117 5.45703 43.5352 5.36719 43.5742 5.1875C43.6836 5.10156 43.7383 5.03516 43.7383 4.98828C43.7383 4.94922 43.6953 4.86328 43.6094 4.73047C43.5859 4.60547 43.5586 4.54297 43.5273 4.54297ZM42.3555 4.73047V4.75391H42.4727L42.5195 4.70703V4.69531L42.4609 4.67188C42.3906 4.69531 42.3555 4.71484 42.3555 4.73047ZM46.5508 4.76562L46.4805 4.73047L46.457 4.75391V4.76562L46.5156 4.80078H46.5273L46.5508 4.76562ZM45.6484 4.84766L45.6719 4.87109H45.6836C45.8555 4.87109 45.9414 4.85547 45.9414 4.82422L45.8477 4.80078C45.7148 4.81641 45.6484 4.83203 45.6484 4.84766ZM43.9492 5.30469V5.33984C44.1523 5.31641 44.4336 5.14844 44.793 4.83594V4.82422H44.7227C44.6914 4.82422 44.5977 4.87891 44.4414 4.98828C44.1133 5.08984 43.9492 5.19531 43.9492 5.30469ZM46.75 4.84766H46.7383V4.88281C46.7383 4.90625 46.7891 5.01562 46.8906 5.21094C46.8906 5.27344 46.9062 5.30469 46.9375 5.30469L46.9844 5.25781V5.21094C46.9844 5.08594 46.9062 4.96484 46.75 4.84766ZM43.1055 4.98828L43.1289 5.02344H43.1523L43.1875 4.87109H43.1523C43.1289 4.87109 43.1133 4.91016 43.1055 4.98828ZM46.0586 5.07031V5.10547H46.3516L46.3984 5.07031V5.02344L46.3398 4.98828H46.2812C46.1328 5.01172 46.0586 5.03906 46.0586 5.07031ZM44.8984 5.25781C45.0703 5.22656 45.1562 5.18359 45.1562 5.12891L45.1211 5.10547H45.0859C44.9688 5.10547 44.9062 5.15625 44.8984 5.25781ZM44.5234 5.39844V5.42188H44.5586C44.6836 5.32031 44.7461 5.23438 44.7461 5.16406H44.7227V5.14062C44.6602 5.14062 44.5938 5.22656 44.5234 5.39844ZM43.6211 5.28125L43.6445 5.35156C43.6445 5.41406 43.6094 5.47656 43.5391 5.53906C43.5781 5.57812 43.5977 5.61719 43.5977 5.65625C43.5977 6.04688 43.625 6.24219 43.6797 6.24219H43.6914C43.7539 6.10156 43.7852 5.91797 43.7852 5.69141C43.7773 5.40234 43.7422 5.25 43.6797 5.23438H43.6562C43.6328 5.23438 43.6211 5.25 43.6211 5.28125ZM46.9258 5.43359V5.46875C47.0195 5.82031 47.0781 6.00391 47.1016 6.01953L47.125 5.9375V5.83203C47.0703 5.56641 47.0039 5.43359 46.9258 5.43359ZM47.4531 5.45703H47.4414C47.457 5.87109 47.4961 6.07812 47.5586 6.07812H47.582C47.543 5.66406 47.5 5.45703 47.4531 5.45703ZM44.3828 5.48047L44.3125 5.57422V5.59766L44.3242 5.62109H44.3828L44.418 5.48047H44.3828ZM44.0547 5.59766L44.0312 5.62109L44.0547 5.65625H44.1016V5.62109L44.0781 5.59766H44.0547ZM47.3711 6.98047V6.99219L47.4062 7.13281H47.4648C47.457 7.03125 47.4258 6.98047 47.3711 6.98047ZM46.9258 7.82422L46.9375 7.83594H46.9492C46.9727 7.83594 46.9844 7.79688 46.9844 7.71875V7.57812C46.9531 7.57812 46.9336 7.66016 46.9258 7.82422ZM46.8555 8.01172C46.9023 8.06641 46.9258 8.14062 46.9258 8.23438H46.9492L46.9844 8.09375V7.89453C46.8984 7.89453 46.8555 7.93359 46.8555 8.01172ZM47.3711 7.90625H47.3477V7.96484H47.3711V7.90625ZM47.6406 7.96484L47.6172 8.19922V8.49219H47.6289C47.7305 8.36719 47.7812 8.25 47.7812 8.14062V8.12891C47.7812 8.01953 47.7344 7.96484 47.6406 7.96484ZM47.3359 8.50391V8.52734H47.3477L47.3945 8.39844V8.375H47.3711C47.3477 8.375 47.3359 8.41797 47.3359 8.50391ZM42.8125 8.55078L42.7891 8.59766V8.60938C42.8047 8.75 42.8555 8.82031 42.9414 8.82031H43.0117L43.0469 8.78516V8.76172C42.9766 8.67578 42.9414 8.60547 42.9414 8.55078H42.8125ZM47.3711 8.71484H47.3242V8.76172L47.3711 8.80859L47.4062 8.78516V8.76172L47.3711 8.71484ZM48.0039 8.98438V9.01953C48.3555 9.01953 48.5312 8.99219 48.5312 8.9375V8.91406H48.3672C48.125 8.92188 48.0039 8.94531 48.0039 8.98438ZM43.3047 9.10156C43.3047 9.14062 43.4062 9.16016 43.6094 9.16016C44 9.16016 44.1953 9.14062 44.1953 9.10156C44.1953 9.05469 44.0625 9.03125 43.7969 9.03125C43.5 9.03125 43.3359 9.05469 43.3047 9.10156ZM46.4805 9.13672H46.4453V9.20703L46.4805 9.24219H46.5156L46.5273 9.20703V9.19531L46.4805 9.13672ZM48.1094 9.23047V9.26562C48.125 9.30469 48.1602 9.32422 48.2148 9.32422C48.3398 9.32422 48.4141 9.29688 48.4375 9.24219V9.20703C48.4219 9.16016 48.3789 9.13672 48.3086 9.13672H48.25C48.1719 9.13672 48.125 9.16797 48.1094 9.23047ZM46.7383 9.44141C46.7617 9.50391 46.8008 9.53516 46.8555 9.53516C47.2773 9.52734 47.4883 9.5 47.4883 9.45312C47.4336 9.38281 47.3359 9.34766 47.1953 9.34766C46.8906 9.35547 46.7383 9.38672 46.7383 9.44141ZM46.4453 9.66406L46.3984 9.71094V9.73438C46.3984 9.78906 46.5039 9.81641 46.7148 9.81641H46.7734L46.8672 9.79297V9.78125C46.7891 9.70312 46.6641 9.66406 46.4922 9.66406H46.4453Z" fill="#172554"/>
<g clip-path="url(#clip0_12_9)">
<path fill-rule="evenodd" clip-rule="evenodd" d="M10.4663 4.21245C9.75467 3.50083 8.60279 3.50083 7.89118 4.21245L7.33938 4.76428L6.23572 3.66063L6.78757 3.10882C7.49918 2.39721 7.49918 1.24531 6.78757 0.533703C6.07596 -0.177901 4.92404 -0.177901 4.21245 0.533703C3.50083 1.24531 3.50083 2.39721 4.21245 3.10882L4.76428 3.66063L3.66063 4.76428L3.10882 4.21245C2.39721 3.50083 1.24531 3.50083 0.533703 4.21245C-0.177901 4.92404 -0.177901 6.07596 0.533703 6.78757C1.24531 7.49918 2.39721 7.49918 3.10882 6.78757L3.66063 6.23572L4.76428 7.33938L4.21245 7.89118C3.50083 8.60279 3.50083 9.75467 4.21245 10.4663C4.92404 11.1779 6.07596 11.1779 6.78757 10.4663C7.49918 9.75467 7.49918 8.60279 6.78757 7.89118L6.23572 7.33938L7.33938 6.23572L7.89118 6.78757C8.60279 7.49918 9.75467 7.49918 10.4663 6.78757C11.1779 6.07596 11.1779 4.92404 10.4663 4.21245ZM6.0518 9.73056C5.74715 10.0352 5.25285 10.0352 4.9482 9.73056C4.64354 9.4259 4.64354 8.93156 4.9482 8.6269L5.5 8.07514L6.0518 8.6269C6.35646 8.93156 6.35646 9.4259 6.0518 9.73056ZM4.39637 5.5L5.5 4.39637L6.60365 5.5L5.5 6.60365L4.39637 5.5ZM4.9482 1.26945C5.25285 0.964806 5.74715 0.964806 6.0518 1.26945C6.35646 1.5741 6.35646 2.06843 6.0518 2.37307L5.5 2.92487L4.9482 2.37307C4.64354 2.06843 4.64354 1.5741 4.9482 1.26945ZM1.26945 4.9482C0.964806 5.25285 0.964806 5.74715 1.26945 6.0518C1.5741 6.35646 2.06843 6.35646 2.37307 6.0518L2.92487 5.5L2.37307 4.9482C2.06843 4.64354 1.5741 4.64354 1.26945 4.9482ZM9.73056 6.0518C9.4259 6.35646 8.93156 6.35646 8.6269 6.0518L8.07514 5.5L8.6269 4.9482C8.93156 4.64354 9.4259 4.64354 9.73056 4.9482C10.0352 5.25285 10.0352 5.74715 9.73056 6.0518Z" fill="#172554"/>
</g>
<defs>
<clipPath id="clip0_12_9">
<rect width="11" height="11" fill="white"/>
</clipPath>
</defs>
</svg>