<svg width="30" height="30" viewBox="0 0 25 25" fill="none" xmlns="http://www.w3.org/2000/svg">
  <g clip-path="url(#clip0_1907_6613)">
    <path fill-rule="evenodd" clip-rule="evenodd"
      d="M23.7871 9.57375C22.1697 7.95644 19.5518 7.95644 17.9345 9.57375L16.6804 10.8279L14.1721 8.31962L15.4263 7.0655C17.0436 5.44821 17.0436 2.83025 15.4263 1.21296C13.809 -0.404321 11.191 -0.404321 9.57375 1.21296C7.95644 2.83025 7.95644 5.44821 9.57375 7.0655L10.8279 8.31962L8.31962 10.8279L7.0655 9.57375C5.44821 7.95644 2.83025 7.95644 1.21296 9.57375C-0.404321 11.191 -0.404321 13.809 1.21296 15.4263C2.83025 17.0436 5.44821 17.0436 7.0655 15.4263L8.31962 14.1721L10.8279 16.6804L9.57375 17.9345C7.95644 19.5518 7.95644 22.1697 9.57375 23.7871C11.191 25.4043 13.809 25.4043 15.4263 23.7871C17.0436 22.1697 17.0436 19.5518 15.4263 17.9345L14.1721 16.6804L16.6804 14.1721L17.9345 15.4263C19.5518 17.0436 22.1697 17.0436 23.7871 15.4263C25.4043 13.809 25.4043 11.191 23.7871 9.57375ZM13.7541 22.1149C13.0617 22.8073 11.9383 22.8073 11.2459 22.1149C10.5535 21.4225 10.5535 20.299 11.2459 19.6066L12.5 18.3526L13.7541 19.6066C14.4465 20.299 14.4465 21.4225 13.7541 22.1149ZM9.99175 12.5L12.5 9.99175L15.0083 12.5L12.5 15.0083L9.99175 12.5ZM11.2459 2.88512C11.9383 2.19274 13.0617 2.19274 13.7541 2.88512C14.4465 3.57749 14.4465 4.70097 13.7541 5.39335L12.5 6.64744L11.2459 5.39335C10.5535 4.70097 10.5535 3.57749 11.2459 2.88512ZM2.88512 11.2459C2.19274 11.9383 2.19274 13.0617 2.88512 13.7541C3.57749 14.4465 4.70097 14.4465 5.39335 13.7541L6.64744 12.5L5.39335 11.2459C4.70097 10.5535 3.57749 10.5535 2.88512 11.2459ZM22.1149 13.7541C21.4225 14.4465 20.299 14.4465 19.6066 13.7541L18.3526 12.5L19.6066 11.2459C20.299 10.5535 21.4225 10.5535 22.1149 11.2459C22.8073 11.9383 22.8073 13.0617 22.1149 13.7541Z"
      fill="#172554"></path>
  </g>
  <defs>
    <clipPath id="clip0_1907_6613">
      <rect width="30" height="30" fill="white"></rect>
    </clipPath>
  </defs>
</svg>